<svg xmlns="http://www.w3.org/2000/svg" viewBox="0 0 96 96" role="img" aria-label="Lattice logo">
  <defs>
    <linearGradient id="core" x1="16" y1="12" x2="80" y2="86" gradientUnits="userSpaceOnUse">
      <stop offset="0" stop-color="#cfb9ff"/>
      <stop offset="0.45" stop-color="#a166ff"/>
      <stop offset="1" stop-color="#5c2bc4"/>
    </linearGradient>
    <linearGradient id="edge" x1="12" y1="10" x2="84" y2="90" gradientUnits="userSpaceOnUse">
      <stop offset="0" stop-color="#ffffff" stop-opacity="0.8"/>
      <stop offset="1" stop-color="#ffffff" stop-opacity="0.25"/>
    </linearGradient>
  </defs>
  <rect x="8" y="8" width="80" height="80" rx="20" fill="#120f1d"/>
  <path d="M48 14L74 30V62L48 78L22 62V30Z" fill="url(#core)"/>
  <path d="M48 22L66 33V59L48 70L30 59V33Z" fill="#120f1d" fill-opacity="0.38"/>
  <path d="M22 30L48 46L74 30M22 62L48 46L74 62M48 14V78" stroke="#f0e7ff" stroke-opacity="0.82" stroke-width="2.4" stroke-linecap="round"/>
  <path d="M30 33L48 46L66 33M30 59L48 46L66 59" stroke="#f0e7ff" stroke-opacity="0.48" stroke-width="1.8" stroke-linecap="round"/>
  <path d="M48 14L74 30V62L48 78L22 62V30Z" fill="none" stroke="url(#edge)" stroke-width="1.8"/>
</svg>
